<svg width="48" height="48" viewBox="0 0 48 48" fill="none" xmlns="http://www.w3.org/2000/svg">
<path d="M25.5 34.5C25.5 34.8978 25.342 35.2794 25.0607 35.5607C24.7794 35.842 24.3978 36 24 36C23.6022 36 23.2206 35.842 22.9393 35.5607C22.658 35.2794 22.5 34.8978 22.5 34.5V23.121L19.062 26.562C18.7803 26.8437 18.3983 27.0019 18 27.0019C17.6017 27.0019 17.2197 26.8437 16.938 26.562C16.6563 26.2803 16.4981 25.8983 16.4981 25.5C16.4981 25.1017 16.6563 24.7197 16.938 24.438L22.938 18.438C23.0773 18.2983 23.2429 18.1875 23.4251 18.1119C23.6073 18.0362 23.8027 17.9973 24 17.9973C24.1973 17.9973 24.3927 18.0362 24.5749 18.1119C24.7571 18.1875 24.9227 18.2983 25.062 18.438L31.062 24.438C31.3437 24.7197 31.5019 25.1017 31.5019 25.5C31.5019 25.8983 31.3437 26.2803 31.062 26.562C30.7803 26.8437 30.3983 27.0019 30 27.0019C29.6017 27.0019 29.2197 26.8437 28.938 26.562L25.5 23.121V34.5Z" fill="#CABAD7"/>
<path d="M42 42V13.5L28.5 0H12C10.4087 0 8.88258 0.632141 7.75736 1.75736C6.63214 2.88258 6 4.4087 6 6V42C6 43.5913 6.63214 45.1174 7.75736 46.2426C8.88258 47.3679 10.4087 48 12 48H36C37.5913 48 39.1174 47.3679 40.2426 46.2426C41.3679 45.1174 42 43.5913 42 42ZM28.5 9C28.5 10.1935 28.9741 11.3381 29.818 12.182C30.6619 13.0259 31.8065 13.5 33 13.5H39V42C39 42.7956 38.6839 43.5587 38.1213 44.1213C37.5587 44.6839 36.7956 45 36 45H12C11.2044 45 10.4413 44.6839 9.87868 44.1213C9.31607 43.5587 9 42.7956 9 42V6C9 5.20435 9.31607 4.44129 9.87868 3.87868C10.4413 3.31607 11.2044 3 12 3H28.5V9Z" fill="#CABAD7"/>
</svg>
