<svg xmlns="http://www.w3.org/2000/svg" width="16" height="16" viewBox="0 0 16 16" fill="none">
  <path d="M9.41023 8.00218L15.6951 1.71712C15.7905 1.62499 15.8666 1.51478 15.9189 1.39293C15.9713 1.27108 15.9988 1.14003 16 1.00742C16.0011 0.874806 15.9758 0.743292 15.9256 0.620551C15.8754 0.497809 15.8012 0.386298 15.7075 0.292524C15.6137 0.198749 15.5022 0.12459 15.3794 0.0743724C15.2567 0.0241549 15.1252 -0.00111465 14.9926 3.77094e-05C14.86 0.00119007 14.7289 0.0287416 14.6071 0.0810845C14.4852 0.133427 14.375 0.209514 14.2829 0.304903L7.99775 6.58972L1.71289 0.304903C1.5249 0.121048 1.272 0.0187435 1.00905 0.0201915C0.746107 0.0216396 0.494342 0.126723 0.308393 0.312638C0.122445 0.498552 0.0173159 0.750297 0.0158213 1.01324C0.0143267 1.27618 0.116587 1.5291 0.300411 1.71712L6.58552 8.00218L0.300411 14.2872C0.205972 14.3796 0.130795 14.4898 0.0792312 14.6114C0.0276677 14.733 0.000742623 14.8637 1.51464e-05 14.9958C-0.00071233 15.1279 0.0247723 15.2588 0.0749931 15.381C0.125214 15.5031 0.199173 15.6141 0.292588 15.7075C0.386004 15.8009 0.49702 15.8749 0.619208 15.9251C0.741396 15.9753 0.872328 16.0007 1.00442 16C1.13652 15.9992 1.26715 15.9723 1.38876 15.9207C1.51037 15.8691 1.62054 15.7939 1.71289 15.6995L7.99775 9.41465L14.2829 15.6995C14.4779 15.8945 14.7335 15.9921 14.989 15.9921C15.2444 15.9921 15.5003 15.8945 15.6951 15.6995C15.8823 15.5122 15.9875 15.2582 15.9875 14.9934C15.9875 14.7285 15.8823 14.4745 15.6951 14.2872L9.41023 8.00218Z" fill="#4F364B"/>
</svg>