<svg xmlns="http://www.w3.org/2000/svg" width="16" height="12" viewBox="0 0 16 12" fill="none">
  <path fill-rule="evenodd" clip-rule="evenodd" d="M6.00098 10.5C6.00098 10.6326 6.05366 10.7598 6.14742 10.8536C6.24119 10.9473 6.36837 11 6.50098 11H14.501C14.6336 11 14.7608 10.9473 14.8545 10.8536C14.9483 10.7598 15.001 10.6326 15.001 10.5V1.5C15.001 1.36739 14.9483 1.24021 14.8545 1.14645C14.7608 1.05268 14.6336 1 14.501 1H6.50098C6.36837 1 6.24119 1.05268 6.14742 1.14645C6.05366 1.24021 6.00098 1.36739 6.00098 1.5V3.5C6.00098 3.63261 5.9483 3.75979 5.85453 3.85355C5.76076 3.94732 5.63358 4 5.50098 4C5.36837 4 5.24119 3.94732 5.14742 3.85355C5.05366 3.75979 5.00098 3.63261 5.00098 3.5V1.5C5.00098 1.10218 5.15901 0.720644 5.44032 0.43934C5.72162 0.158035 6.10315 0 6.50098 0H14.501C14.8988 0 15.2803 0.158035 15.5616 0.43934C15.8429 0.720644 16.001 1.10218 16.001 1.5V10.5C16.001 10.8978 15.8429 11.2794 15.5616 11.5607C15.2803 11.842 14.8988 12 14.501 12H6.50098C6.10315 12 5.72162 11.842 5.44032 11.5607C5.15901 11.2794 5.00098 10.8978 5.00098 10.5V8.5C5.00098 8.36739 5.05366 8.24021 5.14742 8.14645C5.24119 8.05268 5.36837 8 5.50098 8C5.63358 8 5.76076 8.05268 5.85453 8.14645C5.9483 8.24021 6.00098 8.36739 6.00098 8.5V10.5Z" fill="#4F364B"/>
  <path fill-rule="evenodd" clip-rule="evenodd" d="M0.146894 6.35414C0.100331 6.3077 0.0633877 6.25252 0.0381813 6.19178C0.0129748 6.13103 0 6.06591 0 6.00014C0 5.93438 0.0129748 5.86926 0.0381813 5.80851C0.0633877 5.74776 0.100331 5.69259 0.146894 5.64614L3.14689 2.64614C3.19338 2.59966 3.24857 2.56278 3.30931 2.53762C3.37005 2.51246 3.43515 2.49951 3.50089 2.49951C3.56664 2.49951 3.63174 2.51246 3.69248 2.53762C3.75322 2.56278 3.80841 2.59966 3.85489 2.64614C3.90138 2.69263 3.93826 2.74782 3.96342 2.80856C3.98858 2.8693 4.00153 2.9344 4.00153 3.00014C4.00153 3.06589 3.98858 3.13099 3.96342 3.19173C3.93826 3.25247 3.90138 3.30766 3.85489 3.35414L1.70789 5.50014H10.5009C10.6335 5.50014 10.7607 5.55282 10.8544 5.64659C10.9482 5.74036 11.0009 5.86754 11.0009 6.00014C11.0009 6.13275 10.9482 6.25993 10.8544 6.3537C10.7607 6.44747 10.6335 6.50014 10.5009 6.50014H1.70789L3.85489 8.64614C3.90138 8.69263 3.93826 8.74782 3.96342 8.80856C3.98858 8.8693 4.00153 8.9344 4.00153 9.00014C4.00153 9.06589 3.98858 9.13099 3.96342 9.19173C3.93826 9.25247 3.90138 9.30766 3.85489 9.35414C3.80841 9.40063 3.75322 9.43751 3.69248 9.46267C3.63174 9.48783 3.56664 9.50077 3.50089 9.50077C3.43515 9.50077 3.37005 9.48783 3.30931 9.46267C3.24857 9.43751 3.19338 9.40063 3.14689 9.35414L0.146894 6.35414Z" fill="#4F364B"/>
</svg>