<svg xmlns="http://www.w3.org/2000/svg" width="17" height="17" viewBox="0 0 17 17" fill="none">
  <path d="M8.89029 8.05919L8.89016 1.77423C8.89179 1.68047 8.87473 1.58732 8.83998 1.50023C8.80522 1.41313 8.75347 1.33383 8.68774 1.26694C8.62201 1.20006 8.54362 1.14694 8.45714 1.11068C8.37066 1.07442 8.27782 1.05574 8.18405 1.05574C8.09028 1.05574 7.99744 1.07442 7.91096 1.11068C7.82448 1.14694 7.74609 1.20006 7.68036 1.26694C7.61463 1.33383 7.56288 1.41313 7.52812 1.50023C7.49337 1.58732 7.47631 1.68047 7.47794 1.77423L7.47781 8.05919L1.19298 8.0592C1.00706 8.06126 0.829449 8.13656 0.698702 8.26876C0.567954 8.40095 0.494614 8.57938 0.494598 8.76531C0.494581 8.95124 0.56789 9.12968 0.698614 9.26189C0.829338 9.39411 1.00693 9.46945 1.19285 9.47154L7.47794 9.47154L7.47794 15.7566C7.4769 15.85 7.4944 15.9427 7.52943 16.0293C7.56446 16.1159 7.61632 16.1947 7.682 16.2611C7.74768 16.3275 7.82589 16.3802 7.91209 16.4162C7.99829 16.4522 8.09077 16.4707 8.18417 16.4707C8.27758 16.4707 8.37006 16.4521 8.45625 16.4161C8.54245 16.3802 8.62064 16.3274 8.68632 16.261C8.75199 16.1946 8.80383 16.1158 8.83884 16.0292C8.87385 15.9426 8.89134 15.8499 8.89029 15.7565L8.89029 9.47167L15.1752 9.47154C15.3703 9.47154 15.5469 9.39252 15.6746 9.2648C15.8023 9.13709 15.8815 8.96031 15.8814 8.76543C15.8813 8.57817 15.8069 8.39858 15.6745 8.26617C15.5421 8.13375 15.3625 8.05935 15.1753 8.05932L8.89029 8.05919Z" fill="#4F364B"/>
</svg>