<svg xmlns="http://www.w3.org/2000/svg" width="25" height="16" viewBox="0 0 25 16" fill="none">
  <g clip-path="url(#clip0_134_1669)">
    <path d="M12.1122 11.6429H4.74772C4.55158 11.6429 4.39258 11.7987 4.39258 11.9908V12.9702C4.39258 13.1623 4.55158 13.318 4.74772 13.318H12.1122C12.3083 13.318 12.4673 13.1623 12.4673 12.9702V11.9908C12.4673 11.7987 12.3083 11.6429 12.1122 11.6429Z" stroke="#4F364B" stroke-width="0.75" stroke-miterlimit="10"/>
    <path d="M20.2523 11.6429H12.8879C12.6917 11.6429 12.5327 11.7987 12.5327 11.9908V12.9702C12.5327 13.1623 12.6917 13.318 12.8879 13.318H20.2523C20.4485 13.318 20.6075 13.1623 20.6075 12.9702V11.9908C20.6075 11.7987 20.4485 11.6429 20.2523 11.6429Z" stroke="#4F364B" stroke-width="0.75" stroke-miterlimit="10"/>
    <path d="M2.67254 9.06177H1.44824V10.984H2.67254V9.06177Z" stroke="#4F364B" stroke-width="0.75" stroke-miterlimit="10"/>
    <path d="M3.01848 10.865H1.11194C1.02935 10.865 0.962402 10.9306 0.962402 11.0114V11.1396C0.962402 11.2205 1.02935 11.286 1.11194 11.286H3.01848C3.10106 11.286 3.16801 11.2205 3.16801 11.1396V11.0114C3.16801 10.9306 3.10106 10.865 3.01848 10.865Z" fill="#4F364B" stroke="#4F364B" stroke-width="0.75" stroke-miterlimit="10"/>
    <path d="M23.6071 9.06177H22.3828V10.984H23.6071V9.06177Z" stroke="#4F364B" stroke-width="0.75" stroke-miterlimit="10"/>
    <path d="M23.953 10.865H22.0465C21.9639 10.865 21.897 10.9306 21.897 11.0114V11.1396C21.897 11.2205 21.9639 11.286 22.0465 11.286H23.953C24.0356 11.286 24.1026 11.2205 24.1026 11.1396V11.0114C24.1026 10.9306 24.0356 10.865 23.953 10.865Z" fill="#4F364B" stroke="#4F364B" stroke-width="0.75" stroke-miterlimit="10"/>
    <path d="M6.71942 13.437H5.49512V15.3592H6.71942V13.437Z" stroke="#4F364B" stroke-width="0.75" stroke-miterlimit="10"/>
    <path d="M7.05608 15.2402H5.14953C5.06695 15.2402 5 15.3058 5 15.3867V15.5148C5 15.5957 5.06695 15.6613 5.14953 15.6613H7.05608C7.13866 15.6613 7.20561 15.5957 7.20561 15.5148V15.3867C7.20561 15.3058 7.13866 15.2402 7.05608 15.2402Z" fill="#4F364B" stroke="#4F364B" stroke-width="0.75" stroke-miterlimit="10"/>
    <path d="M11.4299 13.437H10.2056V15.3592H11.4299V13.437Z" stroke="#4F364B" stroke-width="0.75" stroke-miterlimit="10"/>
    <path d="M11.7753 15.2402H9.86877C9.78619 15.2402 9.71924 15.3058 9.71924 15.3867V15.5148C9.71924 15.5957 9.78619 15.6613 9.86877 15.6613H11.7753C11.8579 15.6613 11.9248 15.5957 11.9248 15.5148V15.3867C11.9248 15.3058 11.8579 15.2402 11.7753 15.2402Z" fill="#4F364B" stroke="#4F364B" stroke-width="0.75" stroke-miterlimit="10"/>
    <path d="M14.7941 13.437H13.5698V15.3592H14.7941V13.437Z" stroke="#4F364B" stroke-width="0.75" stroke-miterlimit="10"/>
    <path d="M15.1401 15.2402H13.2335C13.1509 15.2402 13.084 15.3058 13.084 15.3867V15.5148C13.084 15.5957 13.1509 15.6613 13.2335 15.6613H15.1401C15.2226 15.6613 15.2896 15.5957 15.2896 15.5148V15.3867C15.2896 15.3058 15.2226 15.2402 15.1401 15.2402Z" fill="#4F364B" stroke="#4F364B" stroke-width="0.75" stroke-miterlimit="10"/>
    <path d="M19.57 13.437H18.3457V15.3592H19.57V13.437Z" stroke="#4F364B" stroke-width="0.75" stroke-miterlimit="10"/>
    <path d="M19.9159 15.2402H18.0094C17.9268 15.2402 17.8599 15.3058 17.8599 15.3867V15.5148C17.8599 15.5957 17.9268 15.6613 18.0094 15.6613H19.9159C19.9985 15.6613 20.0655 15.5957 20.0655 15.5148V15.3867C20.0655 15.3058 19.9985 15.2402 19.9159 15.2402Z" fill="#4F364B" stroke="#4F364B" stroke-width="0.75" stroke-miterlimit="10"/>
    <path d="M19.6352 11.6429C19.6725 11.5056 19.6912 11.3683 19.6912 11.2127V6.39808C19.6912 5.46444 18.9249 4.71387 17.9716 4.71387H15.1679C14.2146 4.71387 13.4482 5.46444 13.4482 6.39808V11.2127C13.4482 11.3592 13.4669 11.5056 13.5043 11.6429H19.6352Z" stroke="#4F364B" stroke-width="0.75" stroke-miterlimit="10"/>
    <path d="M11.5605 11.6429C11.5978 11.5056 11.6165 11.3683 11.6165 11.2127V6.39808C11.6165 5.46444 10.8502 4.71387 9.8969 4.71387H7.09316C6.13989 4.71387 5.37354 5.46444 5.37354 6.39808V11.2127C5.37354 11.3592 5.39223 11.5056 5.42961 11.6429H11.5605Z" stroke="#4F364B" stroke-width="0.75" stroke-miterlimit="10"/>
    <path d="M24.1867 7.32263H19.6914V8.99769H24.1867C24.4391 8.99769 24.6447 8.79632 24.6447 8.54918V7.77114C24.6447 7.524 24.4391 7.32263 24.1867 7.32263Z" stroke="#4F364B" stroke-width="0.75" stroke-miterlimit="10"/>
    <path d="M22.0092 0.347778H19.2055C18.2522 0.347778 17.4858 1.09835 17.4858 2.03199V4.72306H17.9718C18.9251 4.72306 19.6914 5.47364 19.6914 6.40727V7.33176H23.6541C23.7008 7.17615 23.7288 7.01139 23.7288 6.84663V2.03199C23.7288 1.09835 22.9625 0.347778 22.0092 0.347778Z" stroke="#4F364B" stroke-width="0.75" stroke-miterlimit="10"/>
    <path d="M5.3738 6.40727C5.3738 5.47364 6.14015 4.72306 7.09343 4.72306H7.51399V2.03199C7.51399 1.09835 6.74763 0.347778 5.79436 0.347778H2.99062C2.03735 0.347778 1.271 1.09835 1.271 2.03199V6.84663C1.271 7.01139 1.29903 7.17615 1.34576 7.33176H5.3738V6.40727Z" stroke="#4F364B" stroke-width="0.75" stroke-miterlimit="10"/>
    <path d="M5.37367 7.32263H0.812924C0.560588 7.32263 0.35498 7.524 0.35498 7.77114V8.54918C0.35498 8.79632 0.560588 8.99769 0.812924 8.99769H5.37367V7.32263Z" stroke="#4F364B" stroke-width="0.75" stroke-miterlimit="10"/>
    <path d="M13.4485 7.32261V6.39812C13.4485 5.46448 14.2149 4.71391 15.1681 4.71391H15.6541V2.02283C15.6541 1.0892 14.8878 0.338623 13.9345 0.338623H11.1308C10.1775 0.338623 9.41113 1.0892 9.41113 2.02283V4.71391H9.89711C10.8504 4.71391 11.6167 5.46448 11.6167 6.39812V7.32261H13.4485Z" stroke="#4F364B" stroke-width="0.75" stroke-miterlimit="10"/>
    <path d="M13.4485 7.32263H11.6167V8.99769H13.4485V7.32263Z" stroke="#4F364B" stroke-width="0.75" stroke-miterlimit="10"/>
  </g>
  <defs>
    <clipPath id="clip0_134_1669">
      <rect width="25" height="16" fill="white"/>
    </clipPath>
  </defs>
</svg>